<svg xmlns="http://www.w3.org/2000/svg" width="100" height="69" viewBox="0 0 100 69">
  <defs>
    <style>
      .cls-1 {
        fill-rule: evenodd;
      }
    </style>
  </defs>
  <path id="Color_Fill_3" data-name="Color Fill 3" class="cls-1" d="M88.547,66.937h1.47v0.217h-0.6v1.672H89.157V67.154H88.547V66.937h0Zm0.611,1.889h0.256V67.154h0.606V66.937H88.55v0.217h0.608v1.672Zm1.094-1.889H90.6l0.549,1.614,0.531-1.613h0.309v1.889H91.786V67.291l-0.51,1.535H91.022l-0.51-1.535v1.535H90.251V66.937h0Zm0.261,0.354,0.51,1.535h0.254l0.51-1.535v1.535H92V66.937H91.689l-0.531,1.614-0.548-1.614H90.255v1.889h0.257V67.291ZM48.389,64.3V56.49c0-1.593.746-2.735,2.336-2.735h9.808a0.126,0.126,0,0,0,.118-0.118V52.083a0.106,0.106,0,0,0-.009-0.04H48.649a4.161,4.161,0,0,0-3.87,4.436V64.3c0,1.593-.767,2.735-2.336,2.735H32.086a0.113,0.113,0,0,0-.118.108,0.088,0.088,0,0,0,0,.01V68.71a0.136,0.136,0,0,0,.086.13H43.815A4.284,4.284,0,0,0,48.389,64.3Zm-40.3,4.535h3.443a0.136,0.136,0,0,0,.086-0.13V63.73c0-1.593.9-2.7,2.216-2.7H28.024c3.2,0,4.748-1.967,4.748-4.545a4.161,4.161,0,0,0-3.861-4.442H8.029a0.091,0.091,0,0,0-.016.04v1.554a0.1,0.1,0,0,0,.117.118h18.7c1.589,0,2.335,1.141,2.335,2.735s-0.746,2.735-2.335,2.735H12.035c-2.3,0-4.022,1.948-4.022,4.506v4.978A0.124,0.124,0,0,0,8.093,68.838Zm52.5-1.8H79.425a0.089,0.089,0,0,1,.1.077v1.6a0.114,0.114,0,0,0,.11.118h3.4a0.112,0.112,0,0,0,.117-0.107,0.106,0.106,0,0,0,0-.011V67.154a0.128,0.128,0,0,1,.118-0.118h3.373a0.113,0.113,0,0,0,.118-0.108,0.087,0.087,0,0,0,0-.01V65.344a0.113,0.113,0,0,0-.108-0.118h-3.38a0.128,0.128,0,0,1-.118-0.123V53.755a1.609,1.609,0,0,0-.922-1.712H81.249a3.777,3.777,0,0,0-1,.433L59.965,64.97c-0.785.492-1.06,1.042-.863,1.456A1.471,1.471,0,0,0,60.593,67.036ZM44.224,0c1.9,0.355,3.781.861,5.647,1.389C50.938,1.7,52,2.018,53.059,2.359a23.063,23.063,0,0,1,4.819,2.016,9.5,9.5,0,0,1,1.875,1.432A7.129,7.129,0,0,1,61.2,7.838a11.255,11.255,0,0,1,.947,4.394A13.431,13.431,0,0,1,62,15.167a6.89,6.89,0,0,1-.874,2.4A4.348,4.348,0,0,1,59.5,19.128a4.3,4.3,0,0,1-2.111.5,7.442,7.442,0,0,1-3.176-.8c-0.018-3.3,0-6.6-.008-9.892a9.431,9.431,0,0,0-.087-1.788,2.1,2.1,0,0,0-.63-1.225,1.833,1.833,0,0,0-.856-0.4,0.878,0.878,0,0,0-.842.324,2.372,2.372,0,0,0-.422,1.436V33.765L44.226,31.5Q44.22,15.75,44.224,0Zm-10.7,22.339q4.661-1.65,9.309-3.3v3.648a4.349,4.349,0,0,1-.012.5c-2.454.868-4.9,1.751-7.355,2.624a2.627,2.627,0,0,0-.95.532,0.461,0.461,0,0,0-.154.475,0.847,0.847,0,0,0,.487.4,5.1,5.1,0,0,0,1.7.275,9.56,9.56,0,0,0,1.9-.2,7.813,7.813,0,0,0,1.233-.376c1.048-.378,2.1-0.759,3.145-1.133,0.008,1.028,0,2.057,0,3.086,0,0.206.009,0.412-.011,0.617a24.294,24.294,0,0,1-3.893.414,23.344,23.344,0,0,1-7.786-1.17,7.019,7.019,0,0,1-2.324-1.074,2.633,2.633,0,0,1-.887-1.109,1.527,1.527,0,0,1,.046-1.192,2.276,2.276,0,0,1,.808-0.884,13.612,13.612,0,0,1,2.479-1.3C32,22.86,32.767,22.614,33.524,22.339Zm24.97-1.385c0.7-.081,1.413-0.1,2.119-0.126a23.392,23.392,0,0,1,6.895.994c0.437,0.133.86,0.3,1.3,0.442a6.554,6.554,0,0,1,2.173,1.182,1.885,1.885,0,0,1,.7,1.32,1.644,1.644,0,0,1-.447,1.147,6.33,6.33,0,0,1-1.92,1.345,21.34,21.34,0,0,1-2.322.91L52.719,33.282V29.294c0.007-.053-0.022-0.145.053-0.159q5.429-1.927,10.856-3.861a4.987,4.987,0,0,0,1.432-.646,0.535,0.535,0,0,0,.253-0.573,0.86,0.86,0,0,0-.486-0.393,5,5,0,0,0-1.7-.271,8.564,8.564,0,0,0-2.671.406c-2.578.9-5.152,1.813-7.73,2.712V22.228A26.661,26.661,0,0,1,58.494,20.954ZM69.07,30.788a1.633,1.633,0,1,1-1.316.985A1.636,1.636,0,0,1,69.07,30.788Zm-0.122.3a1.355,1.355,0,1,0,1.617.961,1.385,1.385,0,0,0-.674-0.838,1.361,1.361,0,0,0-.944-0.124h0Zm-0.391.382h0.881a0.638,0.638,0,0,1,.466.168,0.575,0.575,0,0,1,.1.5,0.544,0.544,0,0,1-.186.253,0.364,0.364,0,0,1,.154.194,4.247,4.247,0,0,0,.052.512,0.405,0.405,0,0,1,.071.188H69.731a3.983,3.983,0,0,1-.072-0.608,0.183,0.183,0,0,0-.184-0.129c-0.2-.008-0.4,0-0.6,0,0,0.246.007,0.493-.006,0.739H68.562C68.554,32.677,68.557,32.072,68.557,31.47Zm0.319,0.287v0.5h0.533a0.3,0.3,0,0,0,.248-0.092,0.317,0.317,0,0,0,0-.319,0.256,0.256,0,0,0-.222-0.089C69.252,31.753,69.063,31.756,68.876,31.757ZM80,56v9H64Z"/>
</svg>
