<svg xmlns="http://www.w3.org/2000/svg" width="100" height="69" viewBox="0 0 100 69">
  <defs>
    <style>
      .cls-1 {
        fill-rule: evenodd;
      }
    </style>
  </defs>
  <path id="Color_Fill_1" data-name="Color Fill 1" class="cls-1" d="M85.707,53.126V65.6L76.542,53.116l-1.5,0V68.3h1.685V56.1l8.981,12.205,1.689,0V53.126H85.707Zm-19.429-.353c-4.26,0-7.237,3.266-7.237,7.941s2.977,7.948,7.237,7.948S73.5,65.4,73.5,60.714s-2.967-7.941-7.223-7.941m0,14.278c-3.244,0-5.519-2.606-5.519-6.339s2.275-6.336,5.519-6.336,5.5,2.606,5.5,6.336-2.26,6.339-5.5,6.339m24.712-.227V61.206h8.34V59.72h-8.34V54.6H99.9V53.116H89.29V68.311H100V66.824H90.989ZM51.421,68.661l-4.843-6.59-4.84,6.59h-2L45.567,60.7l-5.318-7.237h1.993l4.336,5.9,4.332-5.9H52.9L47.586,60.7l5.827,7.963H51.421ZM24.757,61.273a4.35,4.35,0,0,0-.993-0.634A3.445,3.445,0,0,0,25.586,57.6c0-.972-0.358-4.135-4.929-4.135H14.5v6.552H12.448c-0.267.348-.87,1.182-1.1,1.526H14.5v7.117h6.158c3.335,0,5.408-1.7,5.408-4.437a3.761,3.761,0,0,0-1.308-2.95M16.2,55.047h4.455c1.207,0,3.226.3,3.226,2.416,0,1.6-1.177,2.551-3.226,2.551H16.2V55.047Zm4.455,12.028H16.2V61.541h4.455c1.69,0,3.71.468,3.71,2.649,0,2.506-2.324,2.885-3.71,2.885m13.42-13.966c-4.259,0-7.236,3.266-7.236,7.942S29.816,69,34.075,69,41.3,65.734,41.3,61.051s-2.968-7.942-7.224-7.942m0,14.28c-3.245,0-5.518-2.606-5.518-6.339s2.273-6.335,5.518-6.335,5.5,2.606,5.5,6.335-2.261,6.339-5.5,6.339m-20.4,1.27L7.842,60.7l5.319-7.236H11.168l-4.336,5.9L2.5,53.461H0.513L5.828,60.7,0,68.66H2L6.835,62.07l4.842,6.589h1.994ZM54.74,9.205c-0.074.115-.129,0.227-0.2,0.341,2.2,2.672,9.327,11.373,8.69,17.358a16.553,16.553,0,0,0-1.7-22.527C58.873,4.893,56.2,7.253,54.74,9.205Zm-9.276.335c-0.07-.114-0.125-0.225-0.2-0.341-1.464-1.947-4.136-4.3-6.8-4.819a16.552,16.552,0,0,0-1.717,22.492C36.115,20.893,43.26,12.208,45.464,9.54Zm6.4,5.419h0c-0.6-.509-1.206-1.028-1.862-1.559-0.654.526-1.261,1.041-1.857,1.548h0C43.81,18.78,38.269,23.856,38.322,28.6a16.933,16.933,0,0,0,23.337.017C61.708,23.87,56.188,18.8,51.867,14.959ZM41.172,2.334a16.53,16.53,0,0,1,8.84,2.745,16.424,16.424,0,0,1,8.807-2.745,0.037,0.037,0,0,0,.022,0,16.886,16.886,0,0,0-17.681,0A0.02,0.02,0,0,0,41.172,2.334Z"/>
</svg>
